<?xml version="1.0" encoding="utf-8"?>
<!-- Generator: Adobe Illustrator 27.6.1, SVG Export Plug-In . SVG Version: 6.00 Build 0)  -->
<svg version="1.1" id="Ebene_1" xmlns="http://www.w3.org/2000/svg" xmlns:xlink="http://www.w3.org/1999/xlink" x="0px" y="0px"
	 viewBox="0 0 113.4 24.2" style="enable-background:new 0 0 113.4 24.2;" xml:space="preserve">
<g id="OXID">
	<path d="M0,13.6c0,6.2,4.1,10.6,12.4,10.6h7.3c8.3,0,12.4-4.4,12.4-10.6v-3C32.1,4.4,27.9,0,19.7,0h-7.3C4.1,0,0,4.4,0,10.6
		C0,10.6,0,13.6,0,13.6z M13.9,4.7h4.2c4.9,0,6.8,1.8,6.8,6.1v2.8c0,4.2-1.9,6.1-6.8,6.1h-4.1c-4.9,0-6.7-1.9-6.7-6.1v-2.8
		C7.2,6.5,9.1,4.7,13.9,4.7z"/>
	<g>
		<path d="M49.8,16.8l-7.4,7.4h-9.4l11.7-11.7l0,0l5.2-5.1l0,0L57.2,0h9.4L54.5,12.1l12.1,12.1h-9.4L49.8,16.8z"/>
	</g>
	<path d="M70.1,24.2h7.4V0h-7.4V24.2z"/>
	<path d="M82.7,24.2H101c8.3,0,12.4-4.4,12.4-10.6v-3C113.4,4.4,109.3,0,101,0H82.7L82.7,24.2L82.7,24.2z M89.6,5h9.6
		c4.5,0,6.9,1.7,6.9,5.9v2.3c0,4.2-2.4,5.9-6.9,5.9h-9.6V5z"/>
	<path d="M48.1,5.7l-4.7,4.7L32.9,0h9.4L48.1,5.7z"/>
</g>
</svg>
